<svg width="265" height="60" fill="none" xmlns="http://www.w3.org/2000/svg"><path d="M61.653 43.225s-1.075 1.044-3.886 2.647l.07.097s2.055-.802 4.303-2.153l-.487-.591zm.909 1.14s-1.02 1.07-3.84 2.677l.074.093s2.055-.785 4.246-2.157l-.48-.613z" fill="#2DA343"/><path d="M61.272 8.26l-7.88-.008-1.186 1.481-7.9.017-8.008-.017-1.19-1.481-7.88.008 1.17 1.528s1.108 1.309 1.079 4.447v21.021s.012 5.572 5.945 5.95l4.407.03c-.005 0-.009.003-.013.003.21-.012 2.443-.046 4.432 2.056 1.988-2.102 4.23-2.068 4.44-2.056-.004 0-.008-.004-.012-.004l4.41-.03c5.93-.381 5.942-5.949 5.942-5.949v-21.02c-.112-3.27 1.318-4.792 1.318-4.792l.926-1.184zm-26.586.697l9.558 12.054L53.81 8.948l5.904.021-12.506 15.764 10.344 13.024c-1.112 2.362-3.82 2.647-3.82 2.647l-9.48-11.844-9.488 11.844s-2.712-.28-3.82-2.647l10.34-13.024L28.778 8.957h5.908z" fill="#00529B"/><path d="M26.566 43.225s1.07 1.044 3.886 2.647l-.07.097s-2.055-.802-4.3-2.153l.484-.591zm-.914 1.14s1.022 1.07 3.837 2.677l-.07.093s-2.055-.785-4.246-2.157l.48-.613z" fill="#2DA343"/><path d="M44.182 53.194c-7.483 0-14.234-2.518-19.931-7.083l.48-.591c5.572 4.46 12.137 6.931 19.45 6.931h.046c7.31 0 13.879-2.471 19.452-6.931l.48.591c-5.698 4.565-12.453 7.083-19.932 7.083h-.045zM14.784 23.195s-1.704-1.175-2.8-1.817c-1.086-.633-3.141-1.917-3.141-1.917s1.596.923 2.381.709c.492-.139-.356-1.276-.91-2.178l4.47 5.203zm.72 9.783s-4.197.718-7.45 5.959c0 0 1.285-4.268-2.109-6.655 0 0 2.034 1.527 3.1 1.368.534-.084.369-.739-.202-1.435 0 0 1.352 1.326 3.713 1.057a89.05 89.05 0 012.948-.294z" fill="#2DA343"/><path d="M21.27 39.604c.496-2.106-1.033-3.499-1.823-3.642-3.915-.709-4.742 5.279-4.742 5.279-.934-3.206-2.24-2.337-2.24-2.337-1.882.902-2.18 5.286-2.18 5.286-.024-3.23-.97-2.81-.97-2.81-1.898.6-3.221 4.275-3.221 4.275l-.14-.013c1.409-3.96 2.447-5.417 2.447-5.417 4.51-7.242 9.562-6.327 11.162-5.601 1.596.726 2.476 1.263 4.254 3.936 1.054 1.586 3.08 3.08 3.675 3.566.595.491 1.232.974 3.936 2.597l-.07.097s-2.067-.785-4.304-2.153c-2.398-1.46-4.295-3.667-5.21-3.444-.218.063-.574.381-.574.381z" fill="#2DA343"/><path d="M19.158 8.996l.736.738.707-.772.76.726.736-.743 2.154 1.888s-.554.298-.83.823c-.278.52-1.005 2.55-1.005 2.55h-.265s.476-1.82.302-2.52h-.066s-1.091 1.585-1.257 2.53l-.165.003s.153-1.93-.1-2.727h-.09s-.683 1.595-.802 2.71h-.215s-.207-2.089-.534-2.911h-.177c-.331.839-.534 2.928-.534 2.928h-.219c-.116-1.116-.802-2.714-.802-2.714h-.09c-.253.797-.1 2.727-.1 2.727h-.161c-.166-.948-1.257-2.534-1.257-2.534h-.066c-.174.7.326 2.521.326 2.521h-.29s-.727-2.034-1.004-2.555c-.277-.52-.756-.78-.756-.78l2.075-1.926.74.747.76-.726.733.743.756-.726z" fill="#C183B9"/><path d="M18.79 20.521v.231c.132 7.544 3.311 13.77 3.311 13.77s-1.835-2.71-2.778-4.006c-.711-.982-1.749-1.863-1.749-1.863-1.57-1.305-2.84 1.389-2.84 1.389 1.153-2.472-.219-3.487-.219-3.487C12.51 25.007 10.98 27.7 10.98 27.7c1.522-3.696-.426-4.724-.426-4.724-2.08-1.213-4.861-.566-5.465-.382.397-.13 1.749-.487 2.191-.83.57-.445-.116-.89-.116-.89-1.554-.978-2.77-1.435-2.77-1.435l.009-.076c4.965 1.184 8.954 3.81 11.108 5.283 2.158 1.473 2.452.268 2.452.268.297-1.674-1.703-3.201-1.703-3.201s.36.113.504.113c.711 0 1.244-.583 1.244-1.309l.009-.994c-.36-.063-.724-.13-1.063-.281 0 0-3.105-1.167-3.299-4.549h.26s.108 1.968 1.514 3.017a4.517 4.517 0 01-.046-.617c-.405-.495-.744-1.208-.64-2.391h.247c-.012.306-.107 1.238.447 1.921.083-.373.207-.629.455-.872.339-.34.087-.953.016-1.053h.228s.62.39 1.008 1.414c.104.298.133.478.15.763l.371-2.245.711 2.35.777-2.43.724 2.418.76-2.316.36 2.22c.038-.286.005-.446.095-.765.389-1.023 1.013-1.41 1.013-1.41h.248c-.066.101-.347.714-.008 1.054.248.247.372.5.459.873.558-.684.5-1.616.484-1.922h.24c.107 1.267-.261 1.896-.666 2.391 0 .034-.017.454-.046.617 1.406-1.049 1.571-3.008 1.571-3.008h.232c-.252 3.365-3.055 4.422-3.34 4.536-.41.159-.997.293-.997.293v.986c0 1.872 1.166 2.967 2.377 3 .46.017.88-.252.88-.252-3.484 3.386-2.24 6.693-2.24 6.693-1.41-2.572-1.753-7.238-1.794-9.189v-1.187h-.72l.005.94z" fill="#2DA343"/><path d="M44.223 46.493c-4.494 0-9.26-1.25-12.684-3.466-1.645-1.062-3.75-3.898-3.605-6.264 0 0-1.009.688-1.835-.252-.836-.948-.158-3.097.483-4.267 0 0-.98.273-1.732-.344-.748-.613-.463-2.274.723-3.302.96-.835 1.77-.802 2.394-.97 0 0-3.39-.159-2.174-2.907.227-.512.603-1.259.839-1.8.864-1.993-.017-4.23-.017-4.23s.343 2.17-2.34 5.279c-1.666 2.056-2.51 4.544-1.984 7.56.525 3.021 1.616 6.4 5.172 9.387 1.348 1.128 1.356 1.124 3.741 2.802a25.563 25.563 0 0013.006 3.537m29.398-24.053s1.704-1.175 2.795-1.817a180.001 180.001 0 003.146-1.918s-1.596.928-2.381.705c-.492-.138.36-1.27.91-2.173l-4.47 5.203zm-.718 9.787s4.196.718 7.45 5.955c0 0-1.286-4.267 2.108-6.66 0 0-2.034 1.532-3.105 1.369-.533-.08-.372-.73.203-1.435 0 0-1.356 1.33-3.713 1.066-1.844-.214-2.943-.294-2.943-.294z" fill="#2DA343"/><path d="M67.118 39.612c-.496-2.11 1.033-3.504 1.819-3.642 3.919-.714 4.742 5.278 4.742 5.278.934-3.206 2.24-2.341 2.24-2.341 1.881.906 2.179 5.29 2.179 5.29.025-3.23.972-2.806.972-2.806 1.897.6 3.22 4.275 3.22 4.275l.14-.008c-1.41-3.961-2.443-5.417-2.443-5.417-4.51-7.242-9.566-6.327-11.166-5.601-1.596.725-2.472 1.263-4.25 3.935-1.054 1.59-3.08 3.076-3.675 3.57-.596.492-1.232.97-3.936 2.598l.074.097s2.068-.785 4.3-2.153c2.398-1.464 4.291-3.671 5.209-3.449.223.055.575.374.575.374z" fill="#2DA343"/><path d="M69.235 9l-.736.738-.707-.772-.757.722-.74-.743-2.153 1.888s.558.303.835.819c.277.524 1.004 2.555 1.004 2.555h.265s-.475-1.825-.302-2.522h.07s1.092 1.586 1.257 2.534h.165s-.157-1.93.1-2.727h.087s.686 1.599.802 2.71l.219.005s.202-2.094.533-2.912l.178.004c.33.83.533 2.929.533 2.929l.22-.004c.12-1.112.801-2.71.801-2.71H71c.26.796.104 2.726.104 2.726h.16c.17-.944 1.258-2.534 1.258-2.534h.066c.173.7-.327 2.526-.327 2.526h.29s.727-2.035 1.008-2.56a2.09 2.09 0 01.757-.78l-2.08-1.926-.74.743-.76-.722-.732.739-.77-.726z" fill="#C183B9"/><path d="M69.603 20.526v.227c-.132 7.544-3.307 13.77-3.307 13.77s1.835-2.71 2.778-4.01c.711-.979 1.753-1.86 1.753-1.86 1.567-1.304 2.836 1.385 2.836 1.385-1.15-2.467.223-3.483.223-3.483 2.005-1.548 3.535 1.146 3.535 1.146-1.522-3.697.426-4.729.426-4.729 2.083-1.212 4.866-.562 5.465-.386-.397-.126-1.749-.482-2.195-.83-.57-.445.116-.89.116-.89 1.554-.974 2.774-1.435 2.774-1.435l-.009-.076c-4.96 1.184-8.954 3.81-11.112 5.279-2.158 1.473-2.448.268-2.448.268-.302-1.674 1.704-3.197 1.704-3.197s-.36.11-.505.11c-.71 0-1.244-.588-1.244-1.31" fill="#2DA343"/><path d="M70.384 20.514l-.013-.994c.36-.06.724-.13 1.063-.282 0 0 3.1-1.166 3.299-4.548h-.26s-.108 1.968-1.514 3.013c.033-.164.054-.584.05-.617.405-.495.744-1.208.636-2.392h-.248c.013.307.112 1.238-.446 1.926-.083-.377-.207-.63-.459-.877-.339-.34-.087-.948-.016-1.053h-.228s-.62.395-1.013 1.414a2.45 2.45 0 00-.148.764l-.373-2.25-.71 2.355-.778-2.434-.723 2.421-.761-2.32-.36 2.22c-.037-.286-.004-.445-.095-.764-.388-1.02-1.013-1.414-1.013-1.414h-.252c.07.1.347.713.008 1.049-.248.247-.372.499-.454.872-.558-.68-.5-1.615-.488-1.921h-.236c-.107 1.263.26 1.9.662 2.391 0 .034.016.453.05.617-1.402-1.045-1.572-3.008-1.572-3.008h-.231c.252 3.365 3.055 4.422 3.34 4.535.405.16.996.294.996.294v.99c0 1.867-1.165 2.967-2.372 3-.46.013-.881-.256-.881-.256 3.48 3.39 2.24 6.693 2.24 6.693 1.41-2.564 1.754-7.238 1.795-9.19v-1.187h.72v.957" fill="#2DA343"/><path d="M44.21 47.252c4.73 0 9.278-1.288 13.09-3.537 2.385-1.678 2.393-1.674 3.741-2.802 3.56-2.992 4.647-6.37 5.172-9.39.525-3.013-.318-5.497-1.984-7.557-2.68-3.114-2.336-5.279-2.336-5.279s-.88 2.241-.017 4.226c.236.545.612 1.292.84 1.804 1.21 2.744-2.18 2.908-2.18 2.908.625.167 1.435.134 2.394.969 1.187 1.032 1.472 2.69.724 3.302-.753.617-1.732.344-1.732.344.64 1.17 1.319 3.315.483 4.267-.826.94-1.835.252-1.835.252.14 2.366-1.96 5.203-3.605 6.264-3.423 2.211-8.252 3.466-12.746 3.466" fill="#2DA343"/><path d="M31.564 48.689l-.194-.537a.487.487 0 01-.1-.038c-.66-.31-.81-.919-.516-1.565.29-.642.843-.915 1.5-.604.65.302.81.919.526 1.552-.203.45-.55.73-.964.739l.253.688-.505-.235zm-.144-.907c.421.198.752-.109.926-.49.17-.37.17-.827-.24-1.02-.414-.193-.753.11-.918.478-.178.382-.194.835.232 1.032zm2.033-1.247l.426.16-.45 1.25c-.133.37-.104.654.223.776.326.122.529-.075.661-.449l.45-1.25.427.16-.497 1.384c-.21.579-.62.7-1.165.495-.546-.201-.786-.562-.575-1.141l.5-1.385zm2.692.928l.496.142.248 2.468-.488-.139-.045-.562-.889-.252-.33.453-.455-.13 1.463-1.98zm.12.512h-.008l-.57.826.64.18-.062-1.006zm1.368-.11l1.314.277-.074.357-.864-.185-.116.558.794.164-.075.356-.79-.163-.131.633.872.18-.07.358-1.32-.277.46-2.258zm1.597.325l.487.07c.484.072 1.063.14.976.773a.52.52 0 01-.537.461v.009c.12.03.173.163.202.273l.236.943-.505-.07-.17-.756c-.04-.18-.09-.252-.28-.281l-.145-.021-.132.948-.45-.067.318-2.282zm.31 1.04l.148.021c.224.034.484.038.521-.248.037-.272-.21-.335-.438-.369l-.149-.02-.083.616zm1.566-.78l1.335.108-.029.365-.884-.075-.046.566.81.072-.029.36-.81-.067-.05.646.89.072-.03.365-1.343-.114.186-2.299zm1.629.128l.492.008c.488.009 1.07.005 1.058.647a.522.522 0 01-.48.524v.009c.125.012.195.138.236.243l.348.906-.509-.008-.26-.726c-.062-.172-.116-.24-.31-.243l-.145-.005-.02.957-.456-.008.046-2.304zm.434.994l.149.005c.223.004.48-.021.488-.31.004-.278-.248-.307-.476-.311l-.149-.004-.012.62zm1.464-.963l1.34-.05.012.365-.885.029.02.57.81-.029.013.361-.81.03.025.646.889-.03.016.361-1.348.05-.082-2.303zm2.273-.114l.484-.059.802 1.72h.008l.352-1.87.446-.06-.475 2.388-.554.076-1.063-2.195zm2.233-.305l1.319-.256.066.356-.869.172.108.558.794-.16.07.358-.798.159.124.633.877-.171.066.356-1.323.26-.434-2.265zm1.599-.321l.476-.126c.471-.126 1.033-.29 1.19.331a.529.529 0 01-.322.638v.009c.124-.021.223.08.293.168l.575.78-.492.13-.442-.625c-.108-.151-.178-.197-.364-.151l-.145.037.24.928-.442.117-.567-2.236zm.682.84l.145-.039c.22-.054.459-.155.389-.432-.07-.268-.323-.226-.542-.168l-.145.038.153.6zm1.108-1.314l.43-.147.418 1.259c.124.373.322.575.653.461.33-.113.364-.398.24-.768l-.418-1.258.43-.147.463 1.397c.194.583-.053.94-.603 1.129-.554.189-.96.059-1.154-.525l-.459-1.401zm2.052-.704l.665-.298 1.19 1.377.005-.005-.199-1.82.666-.298.917 2.114-.4.176-.753-1.74h-.008l.194 1.992-.397.18-1.319-1.493-.004.012.757 1.733-.401.18-.914-2.11zM92.242 9.306h-.666c-.194 0-.223.088-.223.239v5.043c0 1.188.09 3.353 2.5 3.353.666 0 2.841-.151 2.841-3.168v-2.346c0-.826 0-1.909-.103-2.626-.07-.466-.178-.495-.575-.495h-.595V8.81h2.765v.495h-.413c-.384 0-.463 0-.463.193v5.316c0 2.76-1.984 3.814-3.861 3.814-3.018 0-3.816-1.65-3.816-3.29v-3.994c0-1.98-.091-2.04-.558-2.04h-.666V8.81h3.832v.495zm9.251 3.482c.798-.6 1.522-1.078 2.32-1.078 1.17 0 1.794.704 1.794 2.068v2.027c0 1.74.054 2.085.471 2.085h.567v.449h-3.271v-.449h.414c.161 0 .264-.017.264-.24v-3.125c0-1.024 0-1.88-1.095-1.88-.517 0-1.038.286-1.464.693V15.8c0 1.74.058 2.085.472 2.085h.521v.449h-3.345v-.45h.533c.162 0 .265-.016.265-.238V14.58c0-1.515 0-2.174-.504-2.174h-.62v-.453c.884-.076 1.79-.134 2.678-.252v1.087zm8.344 3.022c0 1.745.062 2.085.475 2.085h.654v.448h-3.477v-.448h.529c.161 0 .264-.017.264-.24v-3.067c0-1.514 0-2.173-.5-2.173h-.62v-.453c.889-.076 1.79-.135 2.675-.252v4.1zm-1.716-6.219c0-.47.372-.81.815-.81.459 0 .831.344.831.81 0 .478-.372.81-.831.81a.805.805 0 01-.815-.81zm10.075 2.808h-.31c-.24 0-.339.046-.447.252l-2.542 5.735c-.046.093-.104.197-.224.197-.115 0-.177-.092-.235-.243l-1.79-4.187c-.546-1.263-.798-1.758-1.17-1.758h-.356v-.454h3.328v.454h-.579c-.165 0-.24.016-.24.134 0 .138.249.688.327.856l1.273 2.987c.339-.705 1.423-3.017 1.423-3.68 0-.251-.116-.297-.401-.297h-.563v-.454h2.501l.005.458zm2.295 2.131c-.029-.721.248-2.328 1.198-2.328.724 0 1.154 1.02 1.377 1.607l-2.472.688-.103.033zm4.055 2.572c-.546.432-1.124.693-1.835.693-1.613 0-2.134-1.38-2.204-2.795l4.2-1.12c-.545-1.204-1.314-2.165-2.724-2.165-1.984 0-3.092 1.682-3.092 3.558 0 1.863 1.021 3.323 2.989 3.323 1.066 0 2.1-.407 2.881-1.141l-.215-.353zm3.642-4.046c.736-.793 1.178-1.35 1.918-1.35.269 0 .537.117.728.314l-.178.977c-.046.286-.075.39-.223.39-.298 0-.1-.507-.873-.507-.566 0-.992.34-1.372.717v2.212c0 1.745.058 2.085.467 2.085h.773v.449h-3.597v-.45h.534c.161 0 .268-.016.268-.238v-3.067c0-1.515 0-2.174-.504-2.174h-.62v-.453c.889-.075 1.79-.134 2.679-.252v1.347zm8.049.046c0 .105-.074.18-.178.18-.136 0-.177-.104-.223-.21-.248-.586-1.037-.78-1.6-.78-.545 0-1.347.252-1.347.944 0 1.414 3.819.647 3.819 3.047 0 1.695-1.819 2.299-3.195 2.299a5.683 5.683 0 01-1.869-.302l-.207-1.17c-.024-.194.046-.332.224-.332.177 0 .206.122.264.315.178.646 1.092.902 1.745.902.699 0 1.703-.273 1.703-1.142 0-1.485-3.82-.629-3.82-3.046 0-1.129 1.112-2.102 2.811-2.102.592 0 1.228.092 1.762.344l.111 1.053zm4.01 2.708c0 1.745.058 2.085.471 2.085h.654v.448h-3.477v-.448h.529c.165 0 .269-.017.269-.24v-3.067c0-1.514 0-2.173-.501-2.173h-.62v-.453c.889-.076 1.79-.135 2.679-.252v4.1h-.004zm-1.72-6.219c0-.47.376-.81.815-.81.459 0 .826.344.826.81 0 .478-.363.81-.826.81a.805.805 0 01-.815-.81zm8.343 7.431c-.397.378-.782.663-1.348.621-1.447 0-1.728-1.531-1.728-2.731s.389-2.58 1.823-2.58c.471 0 .889.133 1.253.402v4.288zm1.554-9.264c-.884.155-1.773.243-2.662.331v.45h.62c.355 0 .484.406.484 2.764v.856c-.484-.273-.955-.449-1.518-.449-2.058 0-3.166 1.741-3.166 3.663 0 2.312 1.372 3.214 2.501 3.214.918 0 1.496-.453 2.187-.977v.977a17.656 17.656 0 012.666-.285v-.45h-.649c-.434 0-.463-.679-.463-2.194v-7.9zm5.52 9.042c-.352.395-.844.735-1.377.735-.471 0-.711-.34-.711-.793 0-.902.959-1.473 1.819-1.817l.265-.105.004 1.98zm-.753-2.21c-1.079.452-2.885 1.07-2.885 2.525 0 .856.529 1.473 1.389 1.473.831 0 1.761-.734 2.369-1.234.459 1.192 1.509 1.234 1.893 1.234l.579-.886c-.86-.15-1.038-.406-1.038-1.577v-2.312c0-1.636-.149-2.102-1.79-2.102-1.319 0-3.295.755-3.295 1.938 0 .286.248.479.517.479.649 0 1.009-.676 1.009-1.502a1.845 1.845 0 011.008-.298c.972 0 1.001.57 1.001 1.514v.437l-.757.31zm8.761 2.432c-.401.378-.785.663-1.344.621-1.447 0-1.732-1.531-1.732-2.731s.385-2.58 1.819-2.58c.472 0 .889.133 1.257.402v4.288zm1.554-9.264c-.888.155-1.773.243-2.662.331v.45h.62c.356 0 .488.406.488 2.764v.856c-.488-.273-.963-.449-1.525-.449-2.055 0-3.167 1.741-3.167 3.663 0 2.312 1.376 3.214 2.501 3.214.918 0 1.492-.453 2.191-.977v.977a17.66 17.66 0 012.662-.285v-.45h-.649c-.425 0-.459-.679-.459-2.194v-7.9zm10.637 9.264c-.396.378-.781.663-1.347.621-1.447 0-1.728-1.531-1.728-2.731s.388-2.58 1.819-2.58c.471 0 .889.133 1.256.402v4.288zm1.555-9.264c-.885.155-1.778.243-2.667.331v.45h.625c.355 0 .483.406.483 2.764v.856c-.483-.273-.959-.449-1.521-.449-2.059 0-3.167 1.741-3.167 3.663 0 2.312 1.373 3.214 2.501 3.214.918 0 1.493-.453 2.187-.977v.977c.889-.168 1.79-.256 2.667-.285v-.45h-.653c-.426 0-.459-.679-.459-2.194v-7.9h.004zm3.58 6.772c-.029-.721.248-2.328 1.195-2.328.728 0 1.162 1.02 1.381 1.607l-2.472.688-.104.033zm4.056 2.572c-.546.432-1.125.693-1.832.693-1.616 0-2.133-1.38-2.203-2.795l4.204-1.12c-.55-1.204-1.319-2.165-2.724-2.165-1.985 0-3.092 1.682-3.092 3.558 0 1.863 1.021 3.323 2.989 3.323a4.23 4.23 0 002.885-1.141l-.227-.353zM89 29.92c0-4.976 5.064-7.502 9.558-7.502 1.649 0 3.378.164 4.94.776.042 1.062.203 2.69.203 3.34 0 .491-.281.575-.562.575-.401 0-.484-.327-.563-.692-.359-1.759-3.13-2.325-4.58-2.325-2.568 0-5.342 1.427-5.342 4.36 0 6.44 13.089 3.385 13.089 13.246 0 1.346-1.162 8.148-10.157 8.148a19.19 19.19 0 01-6.59-1.18c-.401-2.32-.682-3.574-.682-4.065 0-.243 0-.461.599-.461.484 0 .562.407.686.818.76 2.245 4.176 3.222 6.226 3.222 3.088 0 6.264-1.674 6.264-5.136.004-6.93-13.09-3.792-13.09-13.124zm28.435 14.953c-.963 1.058-2.29 1.998-3.733 1.998-1.286 0-1.926-.94-1.926-2.161 0-2.442 2.608-3.995 4.936-4.934l.723-.282v5.38zm-2.046-5.991c-2.935 1.23-7.834 2.895-7.834 6.847 0 2.325 1.447 3.999 3.774 3.999 2.249 0 4.775-2.001 6.429-3.344 1.24 3.218 4.093 3.344 5.139 3.344l1.566-2.408c-2.327-.407-2.807-1.096-2.807-4.276v-6.281c0-4.44-.405-5.706-4.861-5.706-3.572 0-8.955 2.039-8.955 5.253 0 .776.682 1.309 1.401 1.309 1.766 0 2.729-1.842 2.729-4.078.765-.533 1.807-.814 2.733-.814 2.65 0 2.728 1.548 2.728 4.112v1.183l-2.042.86zm17.35-4.889c2.167-1.628 4.134-2.933 6.305-2.933 3.175 0 4.857 1.918 4.857 5.623v5.505c0 4.724.162 5.664 1.286 5.664h1.526v1.225h-8.88v-1.225h1.124c.438 0 .719-.038.719-.65v-8.48c0-2.77 0-5.094-2.972-5.094-1.402 0-2.811.772-3.973 1.876v6.688c0 4.724.157 5.664 1.282 5.664h1.409v1.225h-9.078v-1.225h1.443c.442 0 .727-.037.727-.65v-8.32c0-4.116 0-5.908-1.368-5.908h-1.687v-1.22c2.41-.206 4.862-.362 7.272-.693v2.928h.008z" fill="#00529B"/><path d="M160.364 38.11h-7.268c1.244-3.218 2.493-6.478 3.977-9.7l3.291 9.7zm.641 1.59l2.414 7.054c.281.814.157.977-.604.977h-1.81v1.347h10.124l.05-1.208-1.013-.042c-1.368 0-1.687-.625-2.89-3.932-2.212-6.15-6.71-18.134-6.71-19.56 0-.814.807-.898.807-1.381 0-.247-.12-.537-.406-.537-.603 0-2.525.49-3.208.659-4.101 9.78-8.276 19.439-9.963 23.92-.198.529-.484.856-1.083.856l-1.236.004-.004 1.221h8.152v-1.347h-2.29c-.678 0-1.12-.121-1.12-.898 0-1.22 1.405-4.888 2.249-7.133h8.541z" fill="#00529B"/><path d="M177.033 33.993c2.17-1.628 4.134-2.933 6.305-2.933 3.171 0 4.861 1.918 4.861 5.623v5.505c0 4.724.162 5.664 1.29 5.664h1.526v1.225h-8.88v-1.225h1.124c.442 0 .724-.038.724-.65v-8.48c0-2.77 0-5.094-2.969-5.094-1.405 0-2.811.772-3.973 1.876v6.688c0 4.724.162 5.664 1.286 5.664h1.402v1.225h-9.075v-1.225h1.447c.442 0 .728-.037.728-.65v-8.32c0-4.116 0-5.908-1.369-5.908h-1.687v-1.22c2.411-.206 4.862-.362 7.268-.693v2.928h-.008zM204.19 45.49c-1.087 1.015-2.129 1.792-3.658 1.666-3.94 0-4.701-4.154-4.701-7.423 0-3.26 1.042-7.002 4.936-7.002 1.29 0 2.415.369 3.419 1.099l.004 11.66zm4.221-25.385c-2.414.407-4.82.882-7.238 1.13v1.224h1.69c.968 0 1.327 1.1 1.327 7.498v2.325c-1.327-.735-2.612-1.221-4.138-1.221-5.585 0-8.599 4.724-8.599 9.944 0 6.277 3.733 8.727 6.788 8.727 2.489 0 4.06-1.23 5.945-2.648v2.648c2.411-.453 4.866-.692 7.227-.776v-1.221h-1.765c-1.162 0-1.241-1.834-1.241-5.954V20.106h.004zm11.2 14.619c2.009-2.157 3.212-3.667 5.225-3.667.724 0 1.443.331 1.964.86l-.48 2.643c-.119.776-.198 1.066-.603 1.066-.802 0-.281-1.389-2.369-1.389-1.526 0-2.687.936-3.737 1.955v5.996c0 4.725.161 5.66 1.285 5.66h2.092v1.225h-9.761v-1.225h1.452c.438 0 .719-.038.719-.646v-8.32c0-4.116 0-5.908-1.368-5.908h-1.687V31.75c2.406-.206 4.862-.36 7.268-.692v3.667zm11.725 3.998c-.075-1.96.682-6.319 3.257-6.319 1.964 0 3.134 2.773 3.734 4.36l-6.706 1.88-.285.079zm2.455-9.495a42.394 42.394 0 015.983-3.672c-.327-.364-1.208-1.342-1.691-1.342-.761 0-4.659 3.26-5.218 4.12l.926.894zm8.554 16.464c-1.484 1.18-3.051 1.876-4.982 1.876-4.378 0-5.783-3.747-5.986-7.582l11.406-3.055c-1.488-3.26-3.572-5.87-7.388-5.87-5.386 0-8.396 4.57-8.396 9.66 0 5.05 2.77 9.012 8.111 9.012 2.894 0 5.701-1.104 7.83-3.097l-.595-.944zm15.3-10.841c0 .285-.207.49-.484.49-.36 0-.479-.285-.599-.57-.687-1.586-2.816-2.119-4.337-2.119-1.484 0-3.655.693-3.655 2.564 0 3.835 10.361 1.75 10.361 8.274 0 4.607-4.937 6.24-8.674 6.24-1.683 0-3.452-.248-5.06-.819l-.558-3.18c-.087-.529.115-.898.599-.898.48 0 .558.331.724.856.483 1.75 2.968 2.446 4.742 2.446 1.885 0 4.613-.734 4.613-3.1 0-4.037-10.356-1.713-10.356-8.275 0-3.054 3.01-5.706 7.632-5.706 1.604 0 3.332.247 4.775.935l.277 2.862z" fill="#00529B"/></svg>