<svg width="265" height="60" viewBox="0 0 265 60" fill="none" xmlns="http://www.w3.org/2000/svg">
<path d="M61.6527 43.2246C61.6527 43.2246 60.5778 44.2694 57.7666 45.8721L57.8369 45.9687C57.8369 45.9687 59.8916 45.1673 62.1405 43.8162L61.6527 43.2246Z" fill="#2DA343"/>
<path d="M62.5623 44.3652C62.5623 44.3652 61.5412 45.4352 58.7217 47.0421L58.7961 47.1345C58.7961 47.1345 60.8508 46.3498 63.0419 44.9778L62.5623 44.3652Z" fill="#2DA343"/>
<path d="M61.2724 8.26034L53.3927 8.25195L52.2062 9.73307L44.3058 9.74985L36.2979 9.73307L35.1073 8.25195L27.2275 8.26034L28.3975 9.78762C28.3975 9.78762 29.5055 11.0967 29.4765 14.2352V35.2561C29.4765 35.2561 29.4889 40.8282 35.4215 41.2058L39.8285 41.2352C39.8243 41.2352 39.8202 41.2394 39.8161 41.2394C40.0269 41.2268 42.2594 41.1932 44.2479 43.2953C46.2364 41.1932 48.4771 41.2268 48.688 41.2394C48.6839 41.2394 48.6797 41.2352 48.6756 41.2352L53.0867 41.2058C59.0151 40.824 59.0275 35.2561 59.0275 35.2561V14.2352C58.9159 10.9666 60.3463 9.44356 60.3463 9.44356L61.2724 8.26034ZM34.6856 8.95685L44.2438 21.0114L53.8102 8.94846L59.7138 8.96944L47.208 24.7331L57.5516 37.7568C56.4396 40.1191 53.7317 40.4044 53.7317 40.4044L44.252 28.5596L34.7641 40.4044C34.7641 40.4044 32.0521 40.1233 30.9442 37.7568L41.2837 24.7331L28.7779 8.95685H34.6856V8.95685Z" fill="#00529B"/>
<path d="M26.5657 43.2246C26.5657 43.2246 27.6365 44.2694 30.4518 45.8721L30.3815 45.9687C30.3815 45.9687 28.3269 45.1673 26.082 43.8162L26.5657 43.2246Z" fill="#2DA343"/>
<path d="M25.6524 44.3652C25.6524 44.3652 26.6736 45.4352 29.4889 47.0421L29.4186 47.1345C29.4186 47.1345 27.364 46.3498 25.1729 44.9778L25.6524 44.3652Z" fill="#2DA343"/>
<path d="M44.1818 53.1937C36.699 53.1937 29.9479 50.6762 24.251 46.1111L24.7305 45.5195C30.3034 49.9797 36.8685 52.451 44.1818 52.451H44.2273C51.5365 52.451 58.1057 49.9797 63.6785 45.5195L64.1581 46.1111C58.4612 50.6762 51.706 53.1937 44.2273 53.1937H44.1818Z" fill="#2DA343"/>
<path d="M14.7836 23.195C14.7836 23.195 13.0803 22.0202 11.9847 21.3782C10.8975 20.7446 8.84277 19.4607 8.84277 19.4607C8.84277 19.4607 10.4386 20.3838 11.2241 20.1698C11.716 20.0313 10.8685 18.8943 10.3145 17.9922L14.7836 23.195Z" fill="#2DA343"/>
<path d="M15.5035 32.9785C15.5035 32.9785 11.3073 33.696 8.05374 38.9365C8.05374 38.9365 9.33946 34.6694 5.94531 32.282C5.94531 32.282 7.97932 33.8092 9.04594 33.6498C9.57924 33.5659 9.41388 32.9113 8.84336 32.2148C8.84336 32.2148 10.1952 33.5407 12.5558 33.2722C14.4038 33.0624 15.5035 32.9785 15.5035 32.9785Z" fill="#2DA343"/>
<path d="M21.2702 39.6044C21.7663 37.4981 20.2367 36.1051 19.447 35.9624C15.532 35.2533 14.7052 41.2408 14.7052 41.2408C13.7708 38.0352 12.4644 38.9037 12.4644 38.9037C10.5834 39.8058 10.2857 44.1904 10.2857 44.1904C10.2609 40.9596 9.3142 41.3792 9.3142 41.3792C7.41662 41.9792 6.09369 45.6547 6.09369 45.6547L5.95312 45.6422C7.36288 41.6813 8.40055 40.2254 8.40055 40.2254C12.9109 32.9834 17.9629 33.8981 19.5628 34.624C21.1586 35.3498 22.0392 35.8869 23.8168 38.5596C24.8711 40.1457 26.8968 41.6394 27.4921 42.1261C28.0874 42.617 28.7241 43.0995 31.4278 44.7233L31.3576 44.8198C31.3576 44.8198 29.2905 44.0352 27.0539 42.6673C24.6561 41.2072 22.7585 39.0002 21.8449 39.2226C21.6257 39.2855 21.2702 39.6044 21.2702 39.6044Z" fill="#2DA343"/>
<path d="M19.1581 8.99566L19.894 9.73412L20.6009 8.9621L21.3616 9.68797L22.0975 8.94531L24.2514 10.8334C24.2514 10.8334 23.6974 11.1313 23.4204 11.6558C23.1434 12.1761 22.4158 14.2069 22.4158 14.2069H22.1512C22.1512 14.2069 22.6267 12.3859 22.453 11.6852H22.3869C22.3869 11.6852 21.2955 13.2712 21.1301 14.2152L20.9647 14.2194C20.9647 14.2194 21.1177 12.2894 20.8655 11.4922H20.7746C20.7746 11.4922 20.0924 13.0866 19.9725 14.2027H19.7576C19.7576 14.2027 19.5508 12.1131 19.2243 11.2908H19.0465C18.7157 12.1299 18.5132 14.2194 18.5132 14.2194H18.2941C18.1783 13.1034 17.492 11.5048 17.492 11.5048H17.4011C17.1489 12.302 17.3019 14.232 17.3019 14.232H17.1406C16.9753 13.2838 15.8838 11.6978 15.8838 11.6978H15.8177C15.6441 12.3985 16.1443 14.2194 16.1443 14.2194H15.8549C15.8549 14.2194 15.1273 12.1845 14.8503 11.6642C14.5733 11.1439 14.0938 10.8838 14.0938 10.8838L16.1691 8.9579L16.9091 9.70475L17.6698 8.97888L18.4016 9.72154L19.1581 8.99566Z" fill="#C183B9"/>
<path d="M18.7897 20.5214V20.7522C18.922 28.2962 22.1012 34.5228 22.1012 34.5228C22.1012 34.5228 20.2656 31.8123 19.323 30.5158C18.6119 29.534 17.5742 28.6529 17.5742 28.6529C16.0033 27.348 14.7341 30.0417 14.7341 30.0417C15.8875 27.5704 14.515 26.555 14.515 26.555C12.5099 25.0067 10.9803 27.7004 10.9803 27.7004C12.5016 24.0039 10.5544 22.976 10.5544 22.976C8.47495 21.7634 5.69266 22.4095 5.08907 22.5941C5.48595 22.4641 6.83782 22.1074 7.28018 21.7634C7.85069 21.3186 7.16442 20.8739 7.16442 20.8739C5.60998 19.8962 4.39453 19.4389 4.39453 19.4389L4.4028 19.3634C9.36793 20.5466 13.3574 23.1732 15.5113 24.6459C17.6693 26.1186 17.9629 24.9144 17.9629 24.9144C18.2605 23.2403 16.2596 21.713 16.2596 21.713C16.2596 21.713 16.6193 21.8263 16.764 21.8263C17.475 21.8263 18.0083 21.2431 18.0083 20.5172L18.0166 19.5228C17.6569 19.4599 17.2931 19.3927 16.9541 19.2417C16.9541 19.2417 13.8494 18.0753 13.6551 14.6934H13.9155C13.9155 14.6934 14.023 16.6613 15.4286 17.7102C15.3955 17.5466 15.379 17.127 15.3831 17.0934C14.978 16.5983 14.639 15.885 14.7423 14.7018C14.7465 14.7018 14.9945 14.7018 14.9904 14.7018C14.978 15.0081 14.8829 15.9396 15.4369 16.6235C15.5196 16.2501 15.6436 15.9941 15.8916 15.7508C16.2306 15.4109 15.9785 14.7983 15.9082 14.6976H16.1356C16.1356 14.6976 16.7557 15.0878 17.1443 16.1116C17.2477 16.4095 17.2766 16.5899 17.2931 16.8753L17.6652 14.6305L18.3763 16.9802L19.1535 14.5508L19.877 16.9676L20.6377 14.6515L20.9973 16.8711C21.0345 16.5857 21.0015 16.4263 21.0924 16.1074C21.481 15.0836 22.1053 14.6976 22.1053 14.6976H22.3533C22.2872 14.7983 22.0061 15.4109 22.3451 15.7508C22.5931 15.9983 22.7172 16.2501 22.804 16.6235C23.3621 15.9396 23.3042 15.0081 23.2877 14.7018H23.5274C23.6349 15.969 23.267 16.5983 22.8618 17.0934C22.8618 17.127 22.8453 17.5466 22.8164 17.7102C24.222 16.6613 24.3874 14.7018 24.3874 14.7018H24.6189C24.3667 18.0669 21.5637 19.1242 21.2785 19.2375C20.8692 19.3969 20.2821 19.5312 20.2821 19.5312V20.5172C20.2821 22.3885 21.448 23.4836 22.6593 23.5172C23.1182 23.534 23.5398 23.2655 23.5398 23.2655C20.0547 26.6515 21.2991 29.9578 21.2991 29.9578C19.8894 27.3857 19.5462 22.72 19.5049 20.769V19.5816H18.7856L18.7897 20.5214Z" fill="#2DA343"/>
<path d="M44.2227 46.4928C39.7288 46.4928 34.9621 45.2424 31.5391 43.0271C29.8937 41.9655 27.7894 39.1292 27.9341 36.7627C27.9341 36.7627 26.9253 37.4508 26.0985 36.511C25.2634 35.5627 25.9414 33.4145 26.5822 32.2438C26.5822 32.2438 25.6024 32.5166 24.85 31.8998C24.1017 31.2872 24.3869 29.6257 25.5735 28.5977C26.5326 27.7627 27.3429 27.7963 27.9671 27.6285C27.9671 27.6285 24.5771 27.469 25.7926 24.7208C26.0199 24.2089 26.3961 23.462 26.6318 22.9208C27.4958 20.9278 26.6153 18.6914 26.6153 18.6914C26.6153 18.6914 26.9584 20.8606 24.2753 23.9697C22.6093 26.0257 21.7659 28.5138 22.2909 31.5306C22.816 34.5515 23.9074 37.9292 27.4628 40.9166C28.8105 42.0452 28.8188 42.041 31.2042 43.7194C35.0159 45.9683 39.4808 47.2564 44.2103 47.2564" fill="#2DA343"/>
<path d="M73.6084 23.2028C73.6084 23.2028 75.3117 22.028 76.4031 21.386C77.4945 20.7483 79.5492 19.4685 79.5492 19.4685C79.5492 19.4685 77.9534 20.3958 77.1679 20.1734C76.6759 20.035 77.5276 18.9021 78.0774 18L73.6084 23.2028Z" fill="#2DA343"/>
<path d="M72.8896 32.9908C72.8896 32.9908 77.0858 33.7083 80.3394 38.9446C80.3394 38.9446 79.0537 34.6775 82.4478 32.2859C82.4478 32.2859 80.4138 33.8174 79.3431 33.6537C78.8098 33.574 78.971 32.9236 79.5457 32.2188C79.5457 32.2188 78.1896 33.5488 75.8332 33.2845C73.9893 33.0705 72.8896 32.9908 72.8896 32.9908Z" fill="#2DA343"/>
<path d="M67.1176 39.6116C66.6215 37.5011 68.1512 36.1081 68.9366 35.9697C72.8558 35.2564 73.6785 41.248 73.6785 41.248C74.6129 38.0424 75.9193 38.9067 75.9193 38.9067C77.8003 39.813 78.098 44.1976 78.098 44.1976C78.1228 40.9669 79.0695 41.3906 79.0695 41.3906C80.9671 41.9906 82.29 45.6662 82.29 45.6662L82.4306 45.6578C81.0208 41.6969 79.9873 40.241 79.9873 40.241C75.4769 32.999 70.4208 33.9137 68.8209 34.6396C67.2251 35.3655 66.3487 35.9025 64.571 38.5753C63.5168 40.1655 61.491 41.6508 60.8957 42.1459C60.3004 42.6368 59.6637 43.1151 56.96 44.7431L57.0344 44.8396C57.0344 44.8396 59.1015 44.055 61.3339 42.6872C63.7317 41.2228 65.6252 39.0158 66.543 39.2382C66.7662 39.2927 67.1176 39.6116 67.1176 39.6116Z" fill="#2DA343"/>
<path d="M69.2349 8.99986L68.499 9.73832L67.7921 8.96629L67.0355 9.68797L66.2955 8.94531L64.1416 10.8334C64.1416 10.8334 64.6997 11.1355 64.9767 11.6516C65.2537 12.1761 65.9813 14.2069 65.9813 14.2069H66.2459C66.2459 14.2069 65.7705 12.3817 65.9441 11.6852H66.0144C66.0144 11.6852 67.1058 13.2712 67.2712 14.2194H67.4365C67.4365 14.2194 67.2794 12.2894 67.5358 11.4922H67.6226C67.6226 11.4922 68.3088 13.0908 68.4246 14.2027L68.6437 14.2069C68.6437 14.2069 68.8463 12.1131 69.177 11.295L69.3548 11.2992C69.6855 12.1299 69.8881 14.2278 69.8881 14.2278L70.1072 14.2236C70.2271 13.1118 70.9092 11.5131 70.9092 11.5131H71.0002C71.2607 12.3104 71.1036 14.2404 71.1036 14.2404H71.2648C71.4343 13.2964 72.5216 11.7062 72.5216 11.7062H72.5877C72.7614 12.4069 72.2611 14.232 72.2611 14.232H72.5505C72.5505 14.232 73.2781 12.1971 73.5592 11.6726C73.8321 11.1565 74.3158 10.8922 74.3158 10.8922L72.2363 8.96629L71.4963 9.70895L70.7356 8.98727L70.0039 9.72573L69.2349 8.99986Z" fill="#C183B9"/>
<path d="M69.6032 20.5261V20.7527C69.4709 28.2967 66.2959 34.5233 66.2959 34.5233C66.2959 34.5233 68.1315 31.8128 69.0741 30.5121C69.7851 29.5345 70.8269 28.6534 70.8269 28.6534C72.3938 27.3485 73.663 30.038 73.663 30.038C72.5137 27.5709 73.8862 26.5555 73.8862 26.5555C75.8913 25.0072 77.4209 27.7009 77.4209 27.7009C75.8995 24.0044 77.8467 22.9723 77.8467 22.9723C79.9304 21.7597 82.7126 22.41 83.3121 22.5862C82.9152 22.4604 81.5633 22.1037 81.1169 21.7555C80.5463 21.3107 81.2326 20.866 81.2326 20.866C82.7871 19.8925 84.0066 19.431 84.0066 19.431L83.9984 19.3555C79.0374 20.5387 75.0438 23.1653 72.8857 24.6338C70.7277 26.1065 70.4383 24.9023 70.4383 24.9023C70.1365 23.2282 72.1416 21.7051 72.1416 21.7051C72.1416 21.7051 71.7819 21.8142 71.6372 21.8142C70.9262 21.8142 70.3929 21.2268 70.3929 20.5051" fill="#2DA343"/>
<path d="M70.3837 20.5139L70.3713 19.5195C70.731 19.4607 71.0948 19.3894 71.4338 19.2384C71.4338 19.2384 74.5344 18.0719 74.7328 14.6901H74.4724C74.4724 14.6901 74.3649 16.6579 72.9593 17.7027C72.9923 17.5391 73.013 17.1195 73.0089 17.0859C73.414 16.5908 73.753 15.8775 73.6455 14.6943H73.3975C73.4099 15.0006 73.5091 15.9321 72.951 16.6202C72.8683 16.2426 72.7443 15.9908 72.4921 15.7433C72.1531 15.4034 72.4053 14.795 72.4756 14.6901H72.2482C72.2482 14.6901 71.6281 15.0845 71.2353 16.1041C71.132 16.402 71.103 16.5824 71.0865 16.8677L70.7144 14.6188L70.0033 16.9726L69.2261 14.5391L68.5026 16.96L67.7419 14.6398L67.3823 16.8593C67.3451 16.574 67.3781 16.4146 67.2872 16.0957C66.8986 15.0761 66.2743 14.6817 66.2743 14.6817H66.0221C66.0924 14.7824 66.3694 15.395 66.0304 15.7307C65.7824 15.9782 65.6583 16.23 65.5756 16.6034C65.0175 15.9237 65.0754 14.988 65.0878 14.6817H64.8522C64.7447 15.9447 65.1126 16.5824 65.5136 17.0733C65.5136 17.1069 65.5302 17.5265 65.5632 17.6901C64.1618 16.6454 63.9923 14.6817 63.9923 14.6817H63.7607C64.0129 18.0468 66.8159 19.1041 67.1012 19.2174C67.5063 19.3768 68.0975 19.5111 68.0975 19.5111V20.5013C68.0975 22.3684 66.9316 23.4677 65.7245 23.5013C65.2656 23.5139 64.8439 23.2454 64.8439 23.2454C68.3249 26.6356 67.0846 29.9377 67.0846 29.9377C68.4944 27.374 68.8375 22.6999 68.8788 20.7489V19.5614H69.5982V20.5181" fill="#2DA343"/>
<path d="M44.2109 47.2525C48.9404 47.2525 53.488 45.9644 57.2997 43.7155C59.6851 42.0372 59.6934 42.0413 61.0411 40.9127C64.6006 37.9211 65.6879 34.5434 66.213 31.5225C66.738 28.5099 65.8946 26.026 64.2286 23.9658C61.5496 20.8525 61.8928 18.6875 61.8928 18.6875C61.8928 18.6875 61.0122 20.9281 61.8762 22.9127C62.1119 23.4581 62.4881 24.205 62.7155 24.7169C63.9268 27.4609 60.5368 27.6246 60.5368 27.6246C61.161 27.7924 61.9713 27.7588 62.9304 28.5938C64.1169 29.626 64.4022 31.2833 63.6539 31.8959C62.9015 32.5127 61.9217 32.2399 61.9217 32.2399C62.5625 33.4106 63.2405 35.5546 62.4054 36.5071C61.5786 37.4469 60.5698 36.7588 60.5698 36.7588C60.7104 39.1253 58.6102 41.9616 56.9648 43.0232C53.5417 45.2344 48.713 46.4889 44.2192 46.4889" fill="#2DA343"/>
<path d="M31.5642 48.6888L31.3699 48.1517C31.3369 48.1433 31.3038 48.1307 31.2707 48.114C30.6093 47.8035 30.4604 47.1951 30.754 46.5489C31.0433 45.907 31.5973 45.6343 32.2547 45.9447C32.9037 46.2468 33.0649 46.8636 32.7797 47.4972C32.5771 47.9461 32.2298 48.2272 31.8164 48.2356L32.0686 48.9237L31.5642 48.6888ZM31.4196 47.7825C31.8412 47.9797 32.172 47.6734 32.3456 47.2916C32.5151 46.9224 32.5151 46.465 32.1058 46.272C31.6924 46.079 31.3534 46.3811 31.188 46.7503C31.0103 47.1321 30.9937 47.5853 31.4196 47.7825Z" fill="#00529B"/>
<path d="M33.4531 46.5352L33.879 46.6946L33.4283 47.9449C33.296 48.3142 33.325 48.5995 33.6516 48.7212C33.9782 48.8428 34.1808 48.6456 34.3131 48.2722L34.7637 47.0219L35.1895 47.1813L34.6934 48.5659C34.4826 49.1449 34.0733 49.2666 33.5276 49.061C32.9818 48.8596 32.7421 48.4988 32.9529 47.9198L33.4531 46.5352Z" fill="#00529B"/>
<path d="M36.1451 47.4629L36.6412 47.6055L36.8893 50.0727L36.4015 49.9342L36.356 49.372L35.4671 49.1202L35.1364 49.5734L34.6816 49.4433L36.1451 47.4629ZM36.265 47.9748H36.2568L35.6862 48.8014L36.327 48.9818L36.265 47.9748Z" fill="#00529B"/>
<path d="M37.6327 47.8652L38.9474 48.1422L38.873 48.4988L38.0089 48.3142L37.8932 48.8722L38.6869 49.0359L38.6125 49.3925L37.8229 49.2289L37.6906 49.8624L38.5629 50.0429L38.4926 50.3995L37.1738 50.1226L37.6327 47.8652Z" fill="#00529B"/>
<path d="M39.2295 48.1895L39.7173 48.2608C40.201 48.3321 40.7798 48.3992 40.693 49.0328C40.6558 49.3013 40.4449 49.4985 40.1555 49.4944V49.5027C40.2754 49.5321 40.3292 49.6664 40.3581 49.7755L40.5937 50.7195L40.0894 50.6482L39.9199 49.893C39.8785 49.7125 39.8289 49.6412 39.6387 49.6118L39.4941 49.5909L39.3618 50.5391L38.9111 50.472L39.2295 48.1895ZM39.5395 49.23L39.6884 49.251C39.9116 49.2846 40.1721 49.2888 40.2093 49.0034C40.2465 48.7307 39.9984 48.6678 39.771 48.6342L39.6222 48.6132L39.5395 49.23Z" fill="#00529B"/>
<path d="M41.106 48.4492L42.4413 48.5583L42.4124 48.9233L41.5276 48.8478L41.4822 49.4142L42.2925 49.4856L42.2635 49.8464L41.4532 49.7793L41.4036 50.4254L42.2925 50.4968L42.2635 50.8618L40.9199 50.7485L41.106 48.4492Z" fill="#00529B"/>
<path d="M42.7349 48.5781L43.2269 48.5865C43.7147 48.5949 44.2976 48.5907 44.2852 49.2327C44.2811 49.5054 44.0951 49.7236 43.8057 49.7571V49.7655C43.9297 49.7781 44 49.904 44.0413 50.0089L44.3886 50.9152L43.8801 50.9068L43.6196 50.1809C43.5576 50.0089 43.5039 49.9418 43.3096 49.9376L43.1649 49.9334L43.1442 50.89L42.6895 50.8816L42.7349 48.5781ZM43.169 49.5725L43.3178 49.5767C43.5411 49.5809 43.7974 49.5558 43.8057 49.2662C43.8098 48.9893 43.5576 48.9599 43.3302 48.9557L43.1814 48.9516L43.169 49.5725Z" fill="#00529B"/>
<path d="M44.6328 48.6089L45.9723 48.5586L45.9847 48.9236L45.1 48.953L45.1206 49.5236L45.9309 49.4943L45.9433 49.8551L45.133 49.8845L45.1579 50.5306L46.0467 50.5013L46.0632 50.8621L44.7155 50.9124L44.6328 48.6089Z" fill="#00529B"/>
<path d="M46.9062 48.4951L47.3899 48.4364L48.192 50.1566H48.2002L48.5516 48.2853L48.9981 48.2266L48.5227 50.614L47.9687 50.6895L46.9062 48.4951Z" fill="#00529B"/>
<path d="M49.1387 48.1895L50.4575 47.9336L50.5236 48.2902L49.6554 48.4623L49.7629 49.0203L50.5567 48.8609L50.627 49.2175L49.8291 49.3769L49.9531 50.0105L50.8295 49.8385L50.8957 50.1951L49.5728 50.4553L49.1387 48.1895Z" fill="#00529B"/>
<path d="M50.7383 47.8689L51.2137 47.743C51.685 47.6172 52.2473 47.4535 52.4044 48.0745C52.4705 48.3388 52.3548 48.599 52.0819 48.7123V48.7207C52.2059 48.6997 52.3051 48.8004 52.3754 48.8885L52.9501 49.6689L52.4581 49.799L52.0157 49.1738C51.9083 49.0228 51.838 48.9766 51.6519 49.0228L51.5072 49.0605L51.747 49.9878L51.3047 50.1053L50.7383 47.8689ZM51.4204 48.7081L51.5651 48.6703C51.7842 48.6158 52.024 48.5151 51.9537 48.2381C51.8835 47.9696 51.6313 48.0116 51.4122 48.0703L51.2675 48.1081L51.4204 48.7081Z" fill="#00529B"/>
<path d="M52.5283 47.3949L52.9583 47.2481L53.3758 48.5068C53.4999 48.8802 53.6983 49.0816 54.029 48.9683C54.3598 48.8551 54.3928 48.5697 54.2688 48.2005L53.8513 46.9418L54.2812 46.7949L54.7442 48.1921C54.9385 48.7753 54.6905 49.132 54.1406 49.3208C53.5867 49.5096 53.1815 49.3795 52.9872 48.7963L52.5283 47.3949Z" fill="#00529B"/>
<path d="M54.5791 46.6912L55.2447 46.3933L56.4353 47.7696L56.4395 47.7654L56.241 45.9444L56.9066 45.6465L57.8244 47.7612L57.4234 47.9374L56.671 46.1961H56.6627L56.857 48.1891L56.4601 48.3696L55.1413 46.8759L55.1372 46.8884L55.8938 48.6213L55.4927 48.8017L54.5791 46.6912Z" fill="#00529B"/>
<path d="M92.2415 9.30565H91.5759C91.3816 9.30565 91.3527 9.39376 91.3527 9.54481V14.5882C91.3527 15.7756 91.4437 17.9406 93.8539 17.9406C94.5195 17.9406 96.694 17.7896 96.694 14.7728V12.4273C96.694 11.6008 96.694 10.5182 96.5907 9.80076C96.5204 9.33502 96.4129 9.30565 96.016 9.30565H95.4207V8.81055H98.1865V9.30565H97.7731C97.3886 9.30565 97.31 9.30565 97.31 9.49866V14.8147C97.31 17.5756 95.3256 18.6287 93.4487 18.6287C90.4308 18.6287 89.6329 16.9798 89.6329 15.3392V11.3448C89.6329 9.36439 89.5419 9.30565 89.0748 9.30565H88.4092V8.81055H92.2415V9.30565Z" fill="#00529B"/>
<path d="M101.493 12.7879C102.291 12.1879 103.015 11.7096 103.813 11.7096C104.983 11.7096 105.607 12.4145 105.607 13.7781V15.8047C105.607 17.5459 105.661 17.89 106.078 17.89H106.645V18.3389H103.374V17.89H103.788C103.949 17.89 104.052 17.8732 104.052 17.6508V14.5249C104.052 13.5012 104.052 12.6452 102.957 12.6452C102.44 12.6452 101.919 12.9305 101.493 13.3375V15.8005C101.493 17.5417 101.551 17.8858 101.965 17.8858H102.486V18.3347H99.141V17.8858H99.6744C99.8356 17.8858 99.9389 17.869 99.9389 17.6466V14.5795C99.9389 13.0648 99.9389 12.4061 99.4346 12.4061H98.8145V11.9529C99.6992 11.8774 100.605 11.8187 101.493 11.7012V12.7879Z" fill="#00529B"/>
<path d="M109.837 15.8092C109.837 17.5547 109.899 17.8945 110.312 17.8945H110.966V18.3435H107.489V17.8945H108.018C108.179 17.8945 108.282 17.8778 108.282 17.6554V14.5882C108.282 13.0736 108.282 12.4148 107.782 12.4148H107.162V11.9617C108.051 11.8861 108.952 11.8274 109.837 11.7099V15.8092ZM108.121 9.59104C108.121 9.12111 108.493 8.78125 108.936 8.78125C109.395 8.78125 109.767 9.12531 109.767 9.59104C109.767 10.0694 109.395 10.4008 108.936 10.4008C108.493 10.4008 108.121 10.0568 108.121 9.59104Z" fill="#00529B"/>
<path d="M118.196 12.3987H117.886C117.646 12.3987 117.547 12.4449 117.439 12.6505L114.897 18.3862C114.851 18.4785 114.793 18.5834 114.673 18.5834C114.558 18.5834 114.496 18.4911 114.438 18.34L112.648 14.1526C112.102 12.8897 111.85 12.3946 111.478 12.3946H111.122V11.9414H114.45V12.3946H113.871C113.706 12.3946 113.631 12.4113 113.631 12.5288C113.631 12.6673 113.88 13.2169 113.958 13.3848L115.231 16.3722C115.57 15.6673 116.654 13.3554 116.654 12.6925C116.654 12.4407 116.538 12.3946 116.253 12.3946H115.69V11.9414H118.191L118.196 12.3987Z" fill="#00529B"/>
<path d="M120.491 14.5302C120.462 13.8086 120.739 12.2016 121.689 12.2016C122.413 12.2016 122.843 13.2211 123.066 13.8086L120.594 14.4967L120.491 14.5302ZM124.546 17.1023C124 17.5344 123.422 17.7946 122.711 17.7946C121.098 17.7946 120.577 16.4141 120.507 15.0002L124.707 13.8799C124.162 12.6757 123.393 11.7148 121.983 11.7148C119.999 11.7148 118.891 13.3974 118.891 15.2729C118.891 17.1358 119.912 18.596 121.88 18.596C122.946 18.596 123.98 18.189 124.761 17.4547L124.546 17.1023Z" fill="#00529B"/>
<path d="M128.188 13.0561C128.924 12.2631 129.366 11.7051 130.106 11.7051C130.375 11.7051 130.643 11.8226 130.834 12.0198L130.656 12.9974C130.61 13.2827 130.581 13.3876 130.433 13.3876C130.135 13.3876 130.333 12.8799 129.56 12.8799C128.994 12.8799 128.568 13.2198 128.188 13.5974V15.8086C128.188 17.554 128.246 17.8939 128.655 17.8939H129.428V18.3428H125.831V17.8939H126.365C126.526 17.8939 126.633 17.8771 126.633 17.6547V14.5876C126.633 13.0729 126.633 12.4142 126.129 12.4142H125.509V11.961C126.398 11.8855 127.299 11.8268 128.188 11.7093V13.0561Z" fill="#00529B"/>
<path d="M136.237 13.1023C136.237 13.2072 136.163 13.2827 136.059 13.2827C135.923 13.2827 135.882 13.1778 135.836 13.0729C135.588 12.4855 134.799 12.2925 134.236 12.2925C133.691 12.2925 132.889 12.5442 132.889 13.2365C132.889 14.6505 136.708 13.8827 136.708 16.2827C136.708 17.9778 134.889 18.582 133.513 18.582C132.889 18.582 132.239 18.4897 131.644 18.2799L131.437 17.1093C131.413 16.9163 131.483 16.7778 131.661 16.7778C131.838 16.7778 131.867 16.8995 131.925 17.0925C132.103 17.7386 133.017 17.9946 133.67 17.9946C134.369 17.9946 135.373 17.7219 135.373 16.8533C135.373 15.368 131.553 16.224 131.553 13.8072C131.553 12.6785 132.665 11.7051 134.364 11.7051C134.956 11.7051 135.592 11.7974 136.126 12.0491L136.237 13.1023Z" fill="#00529B"/>
<path d="M140.247 15.8092C140.247 17.5547 140.305 17.8945 140.718 17.8945H141.372V18.3435H137.895V17.8945H138.424C138.589 17.8945 138.693 17.8778 138.693 17.6554V14.5882C138.693 13.0736 138.693 12.4148 138.192 12.4148H137.572V11.9617C138.461 11.8861 139.362 11.8274 140.251 11.7099V15.8092H140.247V15.8092ZM138.527 9.59104C138.527 9.12111 138.903 8.78125 139.342 8.78125C139.801 8.78125 140.168 9.12531 140.168 9.59104C140.168 10.0694 139.805 10.4008 139.342 10.4008C138.899 10.4008 138.527 10.0568 138.527 9.59104Z" fill="#00529B"/>
<path d="M146.87 17.0221C146.473 17.3998 146.088 17.6851 145.522 17.6431C144.075 17.6431 143.794 16.1117 143.794 14.9117C143.794 13.7117 144.183 12.3312 145.617 12.3312C146.088 12.3312 146.506 12.4655 146.87 12.734V17.0221ZM148.424 7.75781C147.54 7.91306 146.651 8.00117 145.762 8.08928V8.53823H146.382C146.737 8.53823 146.866 8.94523 146.866 11.3033V12.1592C146.382 11.8865 145.911 11.7103 145.348 11.7103C143.29 11.7103 142.182 13.4515 142.182 15.3732C142.182 17.6851 143.554 18.5872 144.683 18.5872C145.601 18.5872 146.179 18.134 146.87 17.6096V18.5872C147.759 18.4194 148.664 18.3312 149.536 18.3019V17.8529H148.887C148.453 17.8529 148.424 17.1732 148.424 15.6585V7.75781Z" fill="#00529B"/>
<path d="M153.944 16.8004C153.592 17.1949 153.1 17.5347 152.567 17.5347C152.096 17.5347 151.856 17.1949 151.856 16.7417C151.856 15.8396 152.815 15.269 153.675 14.9249L153.94 14.82L153.944 16.8004ZM153.191 14.5893C152.112 15.0424 150.306 15.6592 150.306 17.1151C150.306 17.9711 150.835 18.5879 151.695 18.5879C152.526 18.5879 153.456 17.8536 154.064 17.3543C154.523 18.5459 155.573 18.5879 155.957 18.5879L156.536 17.7025C155.676 17.5515 155.498 17.2956 155.498 16.1249V13.813C155.498 12.1767 155.349 11.7109 153.708 11.7109C152.389 11.7109 150.413 12.4662 150.413 13.6494C150.413 13.9347 150.661 14.1277 150.93 14.1277C151.579 14.1277 151.939 13.4522 151.939 12.6256C152.22 12.4326 152.6 12.3277 152.947 12.3277C153.919 12.3277 153.948 12.8984 153.948 13.8424V14.2788L153.191 14.5893Z" fill="#00529B"/>
<path d="M161.952 17.0221C161.551 17.3998 161.167 17.6851 160.608 17.6431C159.161 17.6431 158.876 16.1117 158.876 14.9117C158.876 13.7117 159.261 12.3312 160.695 12.3312C161.167 12.3312 161.584 12.4655 161.952 12.734V17.0221ZM163.506 7.75781C162.618 7.91306 161.733 8.00117 160.844 8.08928V8.53823H161.464C161.82 8.53823 161.952 8.94523 161.952 11.3033V12.1592C161.464 11.8865 160.989 11.7103 160.427 11.7103C158.372 11.7103 157.26 13.4515 157.26 15.3732C157.26 17.6851 158.636 18.5872 159.761 18.5872C160.679 18.5872 161.253 18.134 161.952 17.6096V18.5872C162.841 18.4194 163.746 18.3312 164.614 18.3019V17.8529H163.965C163.54 17.8529 163.506 17.1732 163.506 15.6585V7.75781Z" fill="#00529B"/>
<path d="M174.143 17.0221C173.747 17.3998 173.362 17.6851 172.796 17.6431C171.349 17.6431 171.068 16.1117 171.068 14.9117C171.068 13.7117 171.456 12.3312 172.887 12.3312C173.358 12.3312 173.776 12.4655 174.143 12.734V17.0221ZM175.698 7.75781C174.813 7.91306 173.92 8.00117 173.031 8.08928V8.53823H173.656C174.011 8.53823 174.139 8.94523 174.139 11.3033V12.1592C173.656 11.8865 173.18 11.7103 172.618 11.7103C170.559 11.7103 169.451 13.4515 169.451 15.3732C169.451 17.6851 170.824 18.5872 171.952 18.5872C172.87 18.5872 173.445 18.134 174.139 17.6096V18.5872C175.028 18.4194 175.929 18.3312 176.806 18.3019V17.8529H176.153C175.727 17.8529 175.694 17.1732 175.694 15.6585V7.75781H175.698Z" fill="#00529B"/>
<path d="M179.278 14.5302C179.249 13.8086 179.526 12.2016 180.473 12.2016C181.201 12.2016 181.635 13.2211 181.854 13.8086L179.382 14.4967L179.278 14.5302ZM183.334 17.1023C182.788 17.5344 182.209 17.7946 181.502 17.7946C179.886 17.7946 179.369 16.4141 179.299 15.0002L183.503 13.8799C182.953 12.6757 182.184 11.7148 180.779 11.7148C178.794 11.7148 177.687 13.3974 177.687 15.2729C177.687 17.1358 178.708 18.596 180.676 18.596C181.742 18.596 182.776 18.189 183.561 17.4547L183.334 17.1023Z" fill="#00529B"/>
<path d="M88.9997 29.9201C88.9997 24.9438 94.0641 22.418 98.5579 22.418C100.207 22.418 101.936 22.5816 103.498 23.1942C103.54 24.2557 103.701 25.8837 103.701 26.5341C103.701 27.025 103.42 27.1089 103.139 27.1089C102.738 27.1089 102.655 26.7816 102.576 26.4166C102.217 24.6585 99.4468 24.0921 97.9957 24.0921C95.4284 24.0921 92.6544 25.5187 92.6544 28.4515C92.6544 34.8921 105.743 31.8375 105.743 41.6977C105.743 43.0445 104.581 49.8459 95.5855 49.8459C93.3778 49.8459 91.0875 49.4431 88.9956 48.6669C88.5946 46.3466 88.3135 45.0921 88.3135 44.6012C88.3135 44.3578 88.3135 44.1396 88.9129 44.1396C89.3966 44.1396 89.4752 44.5466 89.5992 44.9578C90.3599 47.2026 93.7747 48.1802 95.8253 48.1802C98.9135 48.1802 102.089 46.5061 102.089 43.0445C102.093 36.1131 88.9997 39.2515 88.9997 29.9201Z" fill="#00529B"/>
<path d="M117.435 44.8734C116.472 45.9308 115.145 46.8706 113.702 46.8706C112.416 46.8706 111.776 45.9308 111.776 44.7098C111.776 42.2678 114.384 40.7154 116.712 39.7755L117.435 39.4944V44.8734ZM115.389 38.8818C112.454 40.1112 107.555 41.7769 107.555 45.7294C107.555 48.0538 109.002 49.728 111.329 49.728C113.578 49.728 116.104 47.7266 117.758 46.3839C118.998 49.6021 121.851 49.728 122.897 49.728L124.463 47.3196C122.136 46.9126 121.656 46.2245 121.656 43.0441V36.7629C121.656 32.3238 121.251 31.0566 116.795 31.0566C113.223 31.0566 107.84 33.0958 107.84 36.3098C107.84 37.086 108.522 37.6189 109.241 37.6189C111.007 37.6189 111.97 35.7769 111.97 33.5406C112.735 33.0077 113.777 32.7266 114.703 32.7266C117.353 32.7266 117.431 34.2748 117.431 36.8385V38.0217L115.389 38.8818Z" fill="#00529B"/>
<path d="M132.739 33.9934C134.906 32.3654 136.873 31.0605 139.044 31.0605C142.219 31.0605 143.901 32.978 143.901 36.6829V42.1878C143.901 46.9123 144.063 47.8522 145.187 47.8522H146.713V49.0773H137.833V47.8522H138.957C139.395 47.8522 139.676 47.8144 139.676 47.2018V38.7221C139.676 35.9529 139.676 33.6284 136.704 33.6284C135.302 33.6284 133.893 34.4004 132.731 35.5039V42.192C132.731 46.9165 132.888 47.8564 134.013 47.8564H135.422V49.0815H126.344V47.8564H127.787C128.229 47.8564 128.514 47.8186 128.514 47.206V38.8857C128.514 34.7696 128.514 32.978 127.146 32.978H125.459V31.7571C127.869 31.5515 130.321 31.3962 132.731 31.0647V33.9934H132.739V33.9934Z" fill="#00529B"/>
<path d="M160.364 38.1103H153.096C154.34 34.8921 155.589 31.632 157.073 28.4096L160.364 38.1103ZM161.005 39.7005L163.419 46.7536C163.7 47.5676 163.576 47.7313 162.815 47.7313H161.005V49.0781H171.129L171.179 47.8697L170.166 47.8278C168.798 47.8278 168.479 47.2026 167.276 43.8963C165.064 37.7452 160.566 25.762 160.566 24.3355C160.566 23.5215 161.373 23.4375 161.373 22.955C161.373 22.7075 161.253 22.418 160.967 22.418C160.364 22.418 158.442 22.9089 157.759 23.0767C153.658 32.8571 149.483 42.5159 147.796 46.997C147.598 47.5257 147.312 47.8529 146.713 47.8529L145.477 47.8571L145.473 49.0781H153.625V47.7313H151.335C150.657 47.7313 150.215 47.6096 150.215 46.8334C150.215 45.6124 151.62 41.9452 152.464 39.7005H161.005Z" fill="#00529B"/>
<path d="M177.033 33.9934C179.203 32.3654 181.167 31.0605 183.338 31.0605C186.509 31.0605 188.199 32.978 188.199 36.6829V42.1878C188.199 46.9123 188.361 47.8522 189.489 47.8522H191.015V49.0773H182.135V47.8522H183.259C183.701 47.8522 183.983 47.8144 183.983 47.2018V38.7221C183.983 35.9529 183.983 33.6284 181.014 33.6284C179.609 33.6284 178.203 34.4004 177.041 35.5039V42.192C177.041 46.9165 177.203 47.8564 178.327 47.8564H179.729V49.0815H170.654V47.8564H172.101C172.543 47.8564 172.829 47.8186 172.829 47.206V38.8857C172.829 34.7696 172.829 32.978 171.46 32.978H169.773V31.7571C172.184 31.5515 174.635 31.3962 177.041 31.0647V33.9934H177.033V33.9934Z" fill="#00529B"/>
<path d="M204.19 45.4901C203.103 46.5055 202.061 47.2817 200.532 47.1558C196.592 47.1558 195.831 43.002 195.831 39.7334C195.831 36.4733 196.873 32.7306 200.767 32.7306C202.057 32.7306 203.182 33.0999 204.186 33.8299L204.19 45.4901ZM208.411 20.1055C205.997 20.5125 203.591 20.9866 201.173 21.2341V22.4593H202.863C203.831 22.4593 204.19 23.5586 204.19 29.9572V32.2817C202.863 31.5474 201.578 31.0607 200.052 31.0607C194.467 31.0607 191.453 35.7852 191.453 41.0048C191.453 47.2817 195.186 49.732 198.241 49.732C200.73 49.732 202.301 48.5027 204.186 47.0845V49.732C206.597 49.2789 209.052 49.0397 211.413 48.9558V47.7348H209.648C208.486 47.7348 208.407 45.9013 208.407 41.781V20.1055H208.411Z" fill="#00529B"/>
<path d="M219.611 34.7238C221.62 32.5671 222.823 31.0566 224.836 31.0566C225.56 31.0566 226.279 31.3881 226.8 31.9168L226.32 34.5601C226.201 35.3364 226.122 35.6259 225.717 35.6259C224.915 35.6259 225.436 34.2371 223.348 34.2371C221.822 34.2371 220.661 35.1727 219.611 36.1923V42.1881C219.611 46.9126 219.772 47.8483 220.896 47.8483H222.988V49.0734H213.227V47.8483H214.679C215.117 47.8483 215.398 47.8105 215.398 47.2021V38.8818C215.398 34.7657 215.398 32.9741 214.03 32.9741H212.343V31.7489C214.749 31.5434 217.205 31.3881 219.611 31.0566V34.7238Z" fill="#00529B"/>
<path d="M231.336 38.722C231.261 36.7625 232.018 32.4031 234.593 32.4031C236.557 32.4031 237.727 35.1765 238.327 36.7625L231.621 38.6423L231.336 38.722ZM233.791 29.2269C235.677 27.8381 237.686 26.6129 239.774 25.5555C239.447 25.1905 238.566 24.2129 238.083 24.2129C237.322 24.2129 233.424 27.473 232.865 28.3332L233.791 29.2269ZM242.345 45.6912C240.861 46.8702 239.294 47.5667 237.363 47.5667C232.985 47.5667 231.58 43.8199 231.377 39.9849L242.783 36.9304C241.295 33.6702 239.211 31.0604 235.395 31.0604C230.009 31.0604 226.999 35.6297 226.999 40.7192C226.999 45.7709 229.769 49.7318 235.11 49.7318C238.004 49.7318 240.811 48.6283 242.94 46.6353L242.345 45.6912Z" fill="#00529B"/>
<path d="M257.645 34.8499C257.645 35.1353 257.438 35.3408 257.161 35.3408C256.801 35.3408 256.682 35.0555 256.562 34.7702C255.875 33.1842 253.746 32.6513 252.225 32.6513C250.741 32.6513 248.57 33.3436 248.57 35.215C248.57 39.0499 258.931 36.9646 258.931 43.4891C258.931 48.0961 253.994 49.7283 250.257 49.7283C248.574 49.7283 246.805 49.4807 245.197 48.9101L244.639 45.7297C244.552 45.201 244.754 44.8318 245.238 44.8318C245.718 44.8318 245.796 45.1632 245.962 45.6877C246.445 47.4374 248.93 48.1339 250.704 48.1339C252.589 48.1339 255.317 47.3996 255.317 45.0332C255.317 40.9968 244.961 43.3213 244.961 36.759C244.961 33.7045 247.971 31.0527 252.593 31.0527C254.197 31.0527 255.925 31.3003 257.368 31.9884L257.645 34.8499Z" fill="#00529B"/>
</svg>
